<svg xmlns="http://www.w3.org/2000/svg" width="512" height="512" viewBox="0 0 200 200">
  <path fill="#ff0066" d="M19.6,-33.8C29.7,-28.1,45.2,-31.6,47.2,-27.5C49.2,-23.4,37.7,-11.7,35.1,-1.5C32.6,8.7,39,17.5,41.7,29.8C44.5,42.1,43.5,57.9,36,56.6C28.4,55.3,14.2,36.8,1.9,33.6C-10.5,30.4,-21,42.4,-33,46.3C-45.1,50.2,-58.7,46,-60,36.9C-61.2,27.8,-50.2,13.9,-42.2,4.6C-34.3,-4.7,-29.5,-9.5,-27.9,-18.1C-26.4,-26.8,-28.2,-39.3,-24.1,-48.6C-20,-57.8,-10,-63.8,-2.6,-59.3C4.7,-54.7,9.5,-39.6,19.6,-33.8Z" transform="translate(100 100)" />
</svg>
